<svg width="24" height="25" viewBox="0 0 24 25" fill="none" xmlns="http://www.w3.org/2000/svg">
<path d="M2.25 18.8645C7.58561 18.8602 12.898 19.5667 18.047 20.9655C18.774 21.1635 19.5 20.6235 19.5 19.8695V18.8645M3.75 4.6145V5.3645C3.75 5.56341 3.67098 5.75418 3.53033 5.89483C3.38968 6.03548 3.19891 6.1145 3 6.1145H2.25M2.25 6.1145V5.7395C2.25 5.1185 2.754 4.6145 3.375 4.6145H20.25M2.25 6.1145V15.1145M20.25 4.6145V5.3645C20.25 5.7785 20.586 6.1145 21 6.1145H21.75M20.25 4.6145H20.625C21.246 4.6145 21.75 5.1185 21.75 5.7395V15.4895C21.75 16.1105 21.246 16.6145 20.625 16.6145H20.25M2.25 15.1145V15.4895C2.25 15.7879 2.36853 16.074 2.5795 16.285C2.79048 16.496 3.07663 16.6145 3.375 16.6145H3.75M2.25 15.1145H3C3.19891 15.1145 3.38968 15.1935 3.53033 15.3342C3.67098 15.4748 3.75 15.6656 3.75 15.8645V16.6145M20.25 16.6145V15.8645C20.25 15.6656 20.329 15.4748 20.4697 15.3342C20.6103 15.1935 20.8011 15.1145 21 15.1145H21.75M20.25 16.6145H3.75M15 10.6145C15 11.4102 14.6839 12.1732 14.1213 12.7358C13.5587 13.2984 12.7956 13.6145 12 13.6145C11.2044 13.6145 10.4413 13.2984 9.87868 12.7358C9.31607 12.1732 9 11.4102 9 10.6145C9 9.81885 9.31607 9.05579 9.87868 8.49318C10.4413 7.93057 11.2044 7.6145 12 7.6145C12.7956 7.6145 13.5587 7.93057 14.1213 8.49318C14.6839 9.05579 15 9.81885 15 10.6145ZM18 10.6145H18.008V10.6225H18V10.6145ZM6 10.6145H6.008V10.6225H6V10.6145Z" stroke="#F9FAFB" stroke-width="1.5" stroke-linecap="round" stroke-linejoin="round"/>
</svg>
