<svg width="24" height="25" viewBox="0 0 24 25" fill="none" xmlns="http://www.w3.org/2000/svg">
<path d="M3 13.2395C3 12.6185 3.504 12.1145 4.125 12.1145H6.375C6.996 12.1145 7.5 12.6185 7.5 13.2395V19.9895C7.5 20.6105 6.996 21.1145 6.375 21.1145H4.125C3.82663 21.1145 3.54048 20.996 3.3295 20.785C3.11853 20.574 3 20.2879 3 19.9895V13.2395ZM9.75 8.7395C9.75 8.1185 10.254 7.6145 10.875 7.6145H13.125C13.746 7.6145 14.25 8.1185 14.25 8.7395V19.9895C14.25 20.6105 13.746 21.1145 13.125 21.1145H10.875C10.5766 21.1145 10.2905 20.996 10.0795 20.785C9.86853 20.574 9.75 20.2879 9.75 19.9895V8.7395ZM16.5 4.2395C16.5 3.6185 17.004 3.1145 17.625 3.1145H19.875C20.496 3.1145 21 3.6185 21 4.2395V19.9895C21 20.6105 20.496 21.1145 19.875 21.1145H17.625C17.3266 21.1145 17.0405 20.996 16.8295 20.785C16.6185 20.574 16.5 20.2879 16.5 19.9895V4.2395Z" stroke="#F9FAFB" stroke-width="1.5" stroke-linecap="round" stroke-linejoin="round"/>
</svg>
