<svg width="24" height="25" viewBox="0 0 24 25" fill="none" xmlns="http://www.w3.org/2000/svg">
<path d="M12 6.1145V18.1145M9 15.2965L9.879 15.9555C11.05 16.8345 12.949 16.8345 14.121 15.9555C15.293 15.0765 15.293 13.6525 14.121 12.7735C13.536 12.3335 12.768 12.1145 12 12.1145C11.275 12.1145 10.55 11.8945 9.997 11.4555C8.891 10.5765 8.891 9.1525 9.997 8.2735C11.103 7.3945 12.897 7.3945 14.003 8.2735L14.418 8.6035M21 12.1145C21 13.2964 20.7672 14.4667 20.3149 15.5587C19.8626 16.6506 19.1997 17.6427 18.364 18.4785C17.5282 19.3142 16.5361 19.9771 15.4442 20.4294C14.3522 20.8817 13.1819 21.1145 12 21.1145C10.8181 21.1145 9.64778 20.8817 8.55585 20.4294C7.46392 19.9771 6.47177 19.3142 5.63604 18.4785C4.80031 17.6427 4.13738 16.6506 3.68508 15.5587C3.23279 14.4667 3 13.2964 3 12.1145C3 9.72755 3.94821 7.43837 5.63604 5.75054C7.32387 4.06271 9.61305 3.1145 12 3.1145C14.3869 3.1145 16.6761 4.06271 18.364 5.75054C20.0518 7.43837 21 9.72755 21 12.1145Z" stroke="#F9FAFB" stroke-width="1.5" stroke-linecap="round" stroke-linejoin="round"/>
</svg>
