<svg width="24" height="25" viewBox="0 0 24 25" fill="none" xmlns="http://www.w3.org/2000/svg">
<path d="M12 21.6637C13.995 21.6636 15.9335 21.0009 17.511 19.7797C19.0886 18.5585 20.2159 16.848 20.716 14.9167M12 21.6637C10.005 21.6636 8.06654 21.0009 6.48898 19.7797C4.91141 18.5585 3.78408 16.848 3.284 14.9167M12 21.6637C14.485 21.6637 16.5 17.6337 16.5 12.6637C16.5 7.6937 14.485 3.6637 12 3.6637M12 21.6637C9.515 21.6637 7.5 17.6337 7.5 12.6637C7.5 7.6937 9.515 3.6637 12 3.6637M20.716 14.9167C20.901 14.1967 21 13.4417 21 12.6637C21.0025 11.1158 20.6039 9.59369 19.843 8.2457M20.716 14.9167C18.0492 16.3951 15.0492 17.1685 12 17.1637C8.838 17.1637 5.867 16.3487 3.284 14.9167M3.284 14.9167C3.09475 14.1807 2.99933 13.4237 3 12.6637C3 11.0587 3.42 9.5507 4.157 8.2457M12 3.6637C13.5962 3.66303 15.1639 4.08705 16.5422 4.89226C17.9205 5.69747 19.0597 6.85486 19.843 8.2457M12 3.6637C10.4038 3.66303 8.83608 4.08705 7.45781 4.89226C6.07954 5.69747 4.94031 6.85486 4.157 8.2457M19.843 8.2457C17.6657 10.1316 14.8805 11.1678 12 11.1637C9.002 11.1637 6.26 10.0637 4.157 8.2457" stroke="#F9FAFB" stroke-width="1.5" stroke-linecap="round" stroke-linejoin="round"/>
</svg>
