<svg width="24" height="25" viewBox="0 0 24 25" fill="none" xmlns="http://www.w3.org/2000/svg">
<path d="M6.11511 5.80451L6.43411 7.71751C6.63962 8.95134 7.2256 10.0901 8.11011 10.9745L9.75011 12.6145L9.36311 13.3895C9.14611 13.8225 9.23111 14.3455 9.57311 14.6875L10.9211 16.0355C11.1311 16.2455 11.2501 16.5325 11.2501 16.8305V17.9195C11.2501 18.3455 11.4901 18.7345 11.8721 18.9255L12.0251 19.0015C12.4581 19.2185 12.9811 19.1335 13.3231 18.7915L14.0461 18.0685C15.161 16.9534 15.9518 15.5563 16.3341 14.0265C16.3838 13.8282 16.3766 13.6199 16.3133 13.4255C16.25 13.2311 16.1331 13.0585 15.9761 12.9275L14.6461 11.8195C14.3951 11.6095 14.0641 11.5205 13.7411 11.5745L12.5711 11.7695C12.3946 11.7989 12.2135 11.7857 12.0431 11.7311C11.8727 11.6765 11.7177 11.582 11.5911 11.4555L11.2961 11.1605C11.1916 11.056 11.1088 10.932 11.0522 10.7955C10.9957 10.659 10.9666 10.5128 10.9666 10.365C10.9666 10.2173 10.9957 10.071 11.0522 9.93449C11.1088 9.798 11.1916 9.67398 11.2961 9.56951L11.4261 9.43751C11.5933 9.27037 11.8088 9.16013 12.0422 9.12243C12.2755 9.08473 12.5148 9.1215 12.7261 9.22751L13.3291 9.52951C13.4811 9.60581 13.6532 9.63229 13.821 9.6052C13.9889 9.57811 14.144 9.49881 14.2642 9.37859C14.3844 9.25836 14.4637 9.1033 14.4908 8.93545C14.5179 8.76759 14.4914 8.59546 14.4151 8.44351L14.2501 8.11451L15.5061 7.27751C16.1575 6.84295 16.6841 6.24595 17.0341 5.54551L17.1801 5.25351M6.11511 5.80451C4.69722 7.0298 3.69718 8.66713 3.25449 10.488C2.8118 12.309 2.94855 14.2227 3.64567 15.9621C4.34278 17.7016 5.56549 19.1801 7.14319 20.1913C8.7209 21.2025 10.5749 21.6961 12.4466 21.603C14.3182 21.51 16.1141 20.8351 17.5838 19.6724C19.0534 18.5097 20.1235 16.9172 20.6447 15.1172C21.1659 13.3172 21.1122 11.3993 20.4911 9.63128C19.87 7.86324 18.7125 6.33215 17.1801 5.25351M6.11511 5.80451C7.74862 4.38892 9.83857 3.61118 12.0001 3.61451C13.9291 3.61451 15.7161 4.22051 17.1801 5.25351" stroke="#F9FAFB" stroke-width="1.5" stroke-linecap="round" stroke-linejoin="round"/>
</svg>
