<svg width="21" height="20" viewBox="0 0 21 20" fill="none" xmlns="http://www.w3.org/2000/svg">
<path d="M15.0457 1.66652C16.1498 1.66982 17.2078 2.10989 17.9885 2.89064C18.7693 3.67138 19.2093 4.72935 19.2126 5.83348V14.1665C19.2093 15.2707 18.7693 16.3286 17.9885 17.1094C17.2078 17.8901 16.1498 18.3302 15.0457 18.3335H6.71263C5.6085 18.3302 4.55053 17.8901 3.76979 17.1094C2.98904 16.3286 2.54897 15.2707 2.54567 14.1665V5.83348C2.54897 4.72935 2.98904 3.67138 3.76979 2.89064C4.55053 2.10989 5.6085 1.66982 6.71263 1.66652H15.0457ZM15.0457 0H6.71263C3.50415 0 0.87915 2.625 0.87915 5.83348V14.1665C0.87915 17.375 3.50415 20 6.71263 20H15.0457C18.2542 20 20.8792 17.375 20.8792 14.1665V5.83348C20.8792 2.625 18.2542 0 15.0457 0Z" fill="#F9FAFB"/>
<path d="M16.2957 5.83368C16.0484 5.83368 15.8068 5.76037 15.6012 5.62302C15.3956 5.48566 15.2354 5.29044 15.1408 5.06203C15.0462 4.83363 15.0214 4.58229 15.0697 4.33982C15.1179 4.09734 15.237 3.87461 15.4118 3.6998C15.5866 3.52498 15.8093 3.40593 16.0518 3.3577C16.2943 3.30947 16.5456 3.33422 16.774 3.42883C17.0024 3.52344 17.1976 3.68366 17.335 3.88922C17.4723 4.09478 17.5457 4.33645 17.5457 4.58368C17.546 4.74793 17.5139 4.91063 17.4512 5.06245C17.3885 5.21427 17.2965 5.35221 17.1803 5.46835C17.0642 5.58449 16.9262 5.67655 16.7744 5.73925C16.6226 5.80194 16.4599 5.83403 16.2957 5.83368Z" fill="#F9FAFB"/>
<path d="M10.8792 6.66652C11.5385 6.66652 12.1829 6.86202 12.7311 7.22831C13.2793 7.5946 13.7066 8.11522 13.9589 8.72433C14.2112 9.33345 14.2772 10.0037 14.1486 10.6503C14.02 11.297 13.7025 11.8909 13.2363 12.3571C12.7701 12.8233 12.1761 13.1408 11.5295 13.2694C10.8828 13.3981 10.2126 13.332 9.60348 13.0797C8.99437 12.8274 8.47375 12.4002 8.10746 11.852C7.74118 11.3038 7.54567 10.6593 7.54567 10C7.54662 9.1162 7.89812 8.26886 8.52307 7.64392C9.14801 7.01897 9.99535 6.66746 10.8792 6.66652ZM10.8792 5C9.89025 5 8.92355 5.29324 8.1013 5.84265C7.27906 6.39206 6.63819 7.17295 6.25975 8.08658C5.88132 9.00021 5.7823 10.0055 5.97523 10.9755C6.16815 11.9454 6.64436 12.8363 7.34362 13.5355C8.04288 14.2348 8.9338 14.711 9.9037 14.9039C10.8736 15.0969 11.8789 14.9978 12.7926 14.6194C13.7062 14.241 14.4871 13.6001 15.0365 12.7779C15.5859 11.9556 15.8792 10.9889 15.8792 10C15.8792 8.67392 15.3524 7.40215 14.4147 6.46447C13.477 5.52678 12.2052 5 10.8792 5Z" fill="#F9FAFB"/>
</svg>
