<svg width="20" height="21" viewBox="0 0 20 21" fill="none" xmlns="http://www.w3.org/2000/svg">
<path d="M6.27991 5.56848C6.13773 5.436 5.94969 5.36388 5.75539 5.3673C5.56109 5.37073 5.3757 5.44944 5.23829 5.58686C5.10087 5.72427 5.02216 5.90966 5.01873 6.10396C5.01531 6.29826 5.08743 6.4863 5.21991 6.62848L8.93991 10.3485L5.21991 14.0685C5.14622 14.1371 5.08712 14.2199 5.04613 14.3119C5.00514 14.4039 4.98309 14.5033 4.98132 14.604C4.97954 14.7047 4.99807 14.8047 5.03579 14.8981C5.07351 14.9915 5.12965 15.0763 5.20087 15.1475C5.27209 15.2187 5.35692 15.2749 5.45031 15.3126C5.5437 15.3503 5.64373 15.3688 5.74443 15.3671C5.84513 15.3653 5.94445 15.3433 6.03645 15.3023C6.12845 15.2613 6.21125 15.2022 6.27991 15.1285L9.99991 11.4085L13.7199 15.1285C13.7886 15.2022 13.8714 15.2613 13.9634 15.3023C14.0554 15.3433 14.1547 15.3653 14.2554 15.3671C14.3561 15.3688 14.4561 15.3503 14.5495 15.3126C14.6429 15.2749 14.7277 15.2187 14.7989 15.1475C14.8702 15.0763 14.9263 14.9915 14.964 14.8981C15.0018 14.8047 15.0203 14.7047 15.0185 14.604C15.0167 14.5033 14.9947 14.4039 14.9537 14.3119C14.9127 14.2199 14.8536 14.1371 14.7799 14.0685L11.0599 10.3485L14.7799 6.62848C14.9124 6.4863 14.9845 6.29826 14.9811 6.10396C14.9777 5.90966 14.8989 5.72427 14.7615 5.58686C14.6241 5.44944 14.4387 5.37073 14.2444 5.3673C14.0501 5.36388 13.8621 5.436 13.7199 5.56848L9.99991 9.28848L6.27991 5.56848Z" fill="#9CA3AF"/>
</svg>
