<svg width="16" height="17" viewBox="0 0 16 17" fill="none" xmlns="http://www.w3.org/2000/svg">
<path fill-rule="evenodd" clip-rule="evenodd" d="M13.3633 3.80868C13.4261 3.85638 13.4789 3.91601 13.5187 3.98414C13.5584 4.05228 13.5844 4.12759 13.595 4.20576C13.6056 4.28393 13.6007 4.36343 13.5806 4.4397C13.5605 4.51598 13.5255 4.58754 13.4777 4.65028L7.07767 13.0503C7.02576 13.1183 6.95989 13.1745 6.88449 13.215C6.80908 13.2554 6.72589 13.2793 6.6405 13.285C6.5551 13.2907 6.46948 13.278 6.38938 13.2479C6.30927 13.2178 6.23654 13.1708 6.17607 13.1103L2.57607 9.51028C2.47009 9.39654 2.41239 9.24611 2.41513 9.09066C2.41788 8.93522 2.48084 8.78692 2.59078 8.67698C2.70071 8.56705 2.84901 8.50408 3.00445 8.50134C3.1599 8.4986 3.31033 8.5563 3.42407 8.66228L6.53927 11.7767L12.5233 3.92308C12.6196 3.79664 12.7621 3.71358 12.9196 3.69214C13.0771 3.67069 13.2367 3.7126 13.3633 3.80868Z" fill="#D1D5DB"/>
</svg>
