<svg width="21" height="21" viewBox="0 0 21 21" fill="none" xmlns="http://www.w3.org/2000/svg">
<path d="M11.0835 5.73633C11.0835 5.53742 11.0045 5.34665 10.8638 5.206C10.7232 5.06535 10.5324 4.98633 10.3335 4.98633C10.1346 4.98633 9.94382 5.06535 9.80317 5.206C9.66251 5.34665 9.5835 5.53742 9.5835 5.73633V10.2363H5.0835C4.88458 10.2363 4.69382 10.3153 4.55317 10.456C4.41251 10.5967 4.3335 10.7874 4.3335 10.9863C4.3335 11.1852 4.41251 11.376 4.55317 11.5167C4.69382 11.6573 4.88458 11.7363 5.0835 11.7363H9.5835V16.2363C9.5835 16.4352 9.66251 16.626 9.80317 16.7667C9.94382 16.9073 10.1346 16.9863 10.3335 16.9863C10.5324 16.9863 10.7232 16.9073 10.8638 16.7667C11.0045 16.626 11.0835 16.4352 11.0835 16.2363V11.7363H15.5835C15.7824 11.7363 15.9732 11.6573 16.1138 11.5167C16.2545 11.376 16.3335 11.1852 16.3335 10.9863C16.3335 10.7874 16.2545 10.5967 16.1138 10.456C15.9732 10.3153 15.7824 10.2363 15.5835 10.2363H11.0835V5.73633Z" fill="#F9FAFB"/>
</svg>
