<svg width="24" height="25" viewBox="0 0 24 25" fill="none" xmlns="http://www.w3.org/2000/svg">
<path d="M10.34 15.9545C9.652 15.8945 8.954 15.8645 8.25 15.8645H7.5C6.30653 15.8645 5.16193 15.3904 4.31802 14.5465C3.47411 13.7026 3 12.558 3 11.3645C3 10.171 3.47411 9.02644 4.31802 8.18252C5.16193 7.33861 6.30653 6.8645 7.5 6.8645H8.25C8.954 6.8645 9.652 6.8345 10.34 6.7745M10.34 15.9545C10.593 16.9165 10.924 17.8465 11.325 18.7375C11.572 19.2875 11.385 19.9475 10.862 20.2485L10.205 20.6285C9.654 20.9465 8.945 20.7455 8.678 20.1675C8.04429 18.7966 7.56146 17.3608 7.238 15.8855M10.34 15.9545C9.94698 14.4562 9.74868 12.9135 9.75 11.3645C9.75 9.7785 9.955 8.2405 10.34 6.7745M10.34 15.9545C13.4215 16.2186 16.4222 17.0796 19.175 18.4895M10.34 6.7745C13.4215 6.51042 16.4223 5.64943 19.175 4.2395M19.175 18.4895C19.057 18.8695 18.93 19.2435 18.795 19.6145M19.175 18.4895C19.719 16.7361 20.0592 14.9258 20.189 13.0945M19.175 4.2395C19.0577 3.86139 18.931 3.48627 18.795 3.1145M19.175 4.2395C19.719 5.99294 20.0592 7.8032 20.189 9.6345M20.189 9.6345C20.684 10.0475 21 10.6695 21 11.3645C21 12.0595 20.684 12.6815 20.189 13.0945M20.189 9.6345C20.2711 10.7864 20.2711 11.9426 20.189 13.0945" stroke="#F9FAFB" stroke-width="1.5" stroke-linecap="round" stroke-linejoin="round"/>
</svg>
