<svg width="25" height="25" viewBox="0 0 25 25" fill="none" xmlns="http://www.w3.org/2000/svg">
<path d="M10.03 16.7856C9.76836 16.1407 9.29065 15.6068 8.67865 15.2753C8.06665 14.9439 7.35845 14.8355 6.67535 14.9688C5.99225 15.1022 5.37675 15.4688 4.93428 16.0061C4.49181 16.5433 4.2499 17.2177 4.24998 17.9136C4.24998 18.2218 4.1867 18.5266 4.06406 18.8092C3.94142 19.0919 3.76203 19.3463 3.53702 19.5568C3.31201 19.7673 3.04616 19.9293 2.75597 20.0328C2.46577 20.1364 2.1574 20.1792 1.84998 20.1586C2.34442 21.0176 3.10861 21.6893 4.0239 22.0695C4.93919 22.4496 5.95438 22.517 6.91187 22.2611C7.86937 22.0052 8.71559 21.4403 9.31919 20.6542C9.92278 19.8681 10.25 18.9047 10.25 17.9136C10.25 17.5146 10.172 17.1336 10.03 16.7856ZM10.03 16.7856C11.219 16.3805 12.3562 15.8368 13.418 15.1656M8.37498 15.1406C8.78018 13.9491 9.32462 12.8096 9.99697 11.7456M13.417 15.1656C15.3133 13.9675 16.9365 12.3839 18.181 10.5176L22.057 4.70365C22.2055 4.48221 22.2725 4.21609 22.2465 3.95074C22.2206 3.68539 22.1034 3.43727 21.9149 3.24874C21.7264 3.06022 21.4782 2.94299 21.2129 2.91707C20.9475 2.89116 20.6814 2.95816 20.46 3.10665L14.646 6.98365C12.7795 8.22779 11.1955 9.85058 9.99697 11.7466C11.5189 12.4271 12.7365 13.6448 13.417 15.1666" stroke="#F9FAFB" stroke-width="1.5" stroke-linecap="round" stroke-linejoin="round"/>
</svg>
