<svg width="24" height="25" viewBox="0 0 24 25" fill="none" xmlns="http://www.w3.org/2000/svg">
<path d="M3.75 3.1145V14.3645C3.75 14.9612 3.98705 15.5335 4.40901 15.9555C4.83097 16.3774 5.40326 16.6145 6 16.6145H8.25M3.75 3.1145H2.25M3.75 3.1145H20.25M8.25 16.6145H15.75M8.25 16.6145L7.25 19.6145M20.25 3.1145H21.75M20.25 3.1145V14.3645C20.25 14.9612 20.0129 15.5335 19.591 15.9555C19.169 16.3774 18.5967 16.6145 18 16.6145H15.75M15.75 16.6145L16.75 19.6145M7.25 19.6145H16.75M7.25 19.6145L6.75 21.1145M16.75 19.6145L17.25 21.1145M7.5 12.1145L10.5 9.1145L12.648 11.2625C13.6572 9.8138 14.9722 8.60433 16.5 7.7195" stroke="#F9FAFB" stroke-width="1.5" stroke-linecap="round" stroke-linejoin="round"/>
</svg>
