<svg width="24" height="25" viewBox="0 0 24 25" fill="none" xmlns="http://www.w3.org/2000/svg">
<path d="M5.25 14.9137H18.75M5.25 14.9137C4.45435 14.9137 3.69129 14.5976 3.12868 14.035C2.56607 13.4724 2.25 12.7093 2.25 11.9137M5.25 14.9137C4.45435 14.9137 3.69129 15.2298 3.12868 15.7924C2.56607 16.355 2.25 17.118 2.25 17.9137C2.25 18.7093 2.56607 19.4724 3.12868 20.035C3.69129 20.5976 4.45435 20.9137 5.25 20.9137H18.75C19.5456 20.9137 20.3087 20.5976 20.8713 20.035C21.4339 19.4724 21.75 18.7093 21.75 17.9137C21.75 17.118 21.4339 16.355 20.8713 15.7924C20.3087 15.2298 19.5456 14.9137 18.75 14.9137M18.75 14.9137C19.5456 14.9137 20.3087 14.5976 20.8713 14.035C21.4339 13.4724 21.75 12.7093 21.75 11.9137M2.25 11.9137C2.25 11.118 2.56607 10.355 3.12868 9.79238C3.69129 9.22977 4.45435 8.9137 5.25 8.9137H18.75C19.5456 8.9137 20.3087 9.22977 20.8713 9.79238C21.4339 10.355 21.75 11.118 21.75 11.9137M2.25 11.9137C2.25 10.94 2.5658 9.99263 3.15 9.2137L5.737 5.7637C6.05137 5.34453 6.45902 5.00432 6.92765 4.77C7.39629 4.53569 7.91305 4.4137 8.437 4.4137H15.563C16.625 4.4137 17.625 4.9137 18.263 5.7637L20.85 9.2137C21.4342 9.99263 21.75 10.94 21.75 11.9137M18.75 17.9137H18.758V17.9217H18.75V17.9137ZM18.75 11.9137H18.758V11.9217H18.75V11.9137ZM15.75 17.9137H15.758V17.9217H15.75V17.9137ZM15.75 11.9137H15.758V11.9217H15.75V11.9137Z" stroke="#F9FAFB" stroke-width="1.5" stroke-linecap="round" stroke-linejoin="round"/>
</svg>
