<svg width="24" height="25" viewBox="0 0 24 25" fill="none" xmlns="http://www.w3.org/2000/svg">
<path d="M11.4799 4.4853C11.5222 4.38213 11.5942 4.29387 11.6868 4.23176C11.7794 4.16964 11.8884 4.13647 11.9999 4.13647C12.1114 4.13647 12.2204 4.16964 12.313 4.23176C12.4056 4.29387 12.4776 4.38213 12.5199 4.4853L14.6449 9.5963C14.6847 9.69193 14.7501 9.77474 14.8339 9.83561C14.9177 9.89648 15.0167 9.93305 15.1199 9.9413L20.6379 10.3833C21.1369 10.4233 21.3389 11.0463 20.9589 11.3713L16.7549 14.9733C16.6764 15.0405 16.6178 15.128 16.5857 15.2263C16.5536 15.3245 16.5492 15.4297 16.5729 15.5303L17.8579 20.9153C17.8837 21.0233 17.877 21.1366 17.8385 21.2408C17.7999 21.345 17.7314 21.4354 17.6415 21.5007C17.5517 21.566 17.4444 21.6032 17.3335 21.6075C17.2225 21.6119 17.1126 21.5833 17.0179 21.5253L12.2929 18.6403C12.2046 18.5865 12.1033 18.558 11.9999 18.558C11.8965 18.558 11.7952 18.5865 11.7069 18.6403L6.98191 21.5263C6.88716 21.5843 6.77736 21.6129 6.66636 21.6085C6.55537 21.6042 6.44816 21.567 6.35827 21.5017C6.26839 21.4364 6.19987 21.346 6.16136 21.2418C6.12285 21.1376 6.11608 21.0243 6.14191 20.9163L7.42691 15.5303C7.45074 15.4297 7.44636 15.3245 7.41425 15.2262C7.38214 15.1279 7.32354 15.0404 7.24491 14.9733L3.04091 11.3713C2.95672 11.2989 2.89582 11.2032 2.86586 11.0963C2.8359 10.9894 2.83821 10.876 2.87252 10.7704C2.90683 10.6648 2.9716 10.5718 3.05867 10.5029C3.14575 10.434 3.25125 10.3924 3.36191 10.3833L8.87991 9.9413C8.98316 9.93305 9.08213 9.89648 9.16593 9.83561C9.24974 9.77474 9.31513 9.69193 9.35491 9.5963L11.4799 4.4853Z" stroke="#F9FAFB" stroke-width="1.5" stroke-linecap="round" stroke-linejoin="round"/>
</svg>
