<svg width="24" height="25" viewBox="0 0 24 25" fill="none" xmlns="http://www.w3.org/2000/svg">
<path d="M17.059 16.1355C17.5268 15.8161 18.0755 15.6356 18.6415 15.6149C19.2076 15.5943 19.768 15.7344 20.2578 16.0189C20.7476 16.3035 21.1468 16.7209 21.4093 17.2229C21.6718 17.7249 21.7868 18.2909 21.741 18.8555C20.5412 19.2748 19.2668 19.438 18 19.3345C17.9961 18.2011 17.6697 17.0913 17.059 16.1365C16.5169 15.2863 15.7691 14.5865 14.8848 14.102C14.0005 13.6175 13.0083 13.3638 12 13.3645C10.9918 13.364 9.99981 13.6177 9.11571 14.1022C8.23162 14.5868 7.48399 15.2864 6.94199 16.1365M17.999 19.3335L18 19.3645C18 19.5895 17.988 19.8115 17.963 20.0305C16.1483 21.0716 14.0921 21.6178 12 21.6145C9.82998 21.6145 7.79299 21.0385 6.03699 20.0305C6.01128 19.7991 5.99892 19.5664 5.99999 19.3335M5.99999 19.3335C4.73361 19.4408 3.45989 19.2782 2.26099 18.8565C2.21534 18.2921 2.33038 17.7262 2.59281 17.2244C2.85525 16.7226 3.25435 16.3053 3.74399 16.0208C4.23362 15.7363 4.79378 15.5962 5.3597 15.6166C5.92563 15.6371 6.4742 15.8173 6.94199 16.1365M5.99999 19.3335C6.00358 18.2002 6.33161 17.0914 6.94199 16.1365M15 7.3645C15 8.16015 14.6839 8.92321 14.1213 9.48582C13.5587 10.0484 12.7956 10.3645 12 10.3645C11.2043 10.3645 10.4413 10.0484 9.87866 9.48582C9.31606 8.92321 8.99999 8.16015 8.99999 7.3645C8.99999 6.56885 9.31606 5.80579 9.87866 5.24318C10.4413 4.68057 11.2043 4.3645 12 4.3645C12.7956 4.3645 13.5587 4.68057 14.1213 5.24318C14.6839 5.80579 15 6.56885 15 7.3645ZM21 10.3645C21 10.66 20.9418 10.9526 20.8287 11.2255C20.7156 11.4985 20.5499 11.7466 20.341 11.9555C20.132 12.1644 19.884 12.3302 19.611 12.4432C19.338 12.5563 19.0455 12.6145 18.75 12.6145C18.4545 12.6145 18.1619 12.5563 17.8889 12.4432C17.616 12.3302 17.3679 12.1644 17.159 11.9555C16.9501 11.7466 16.7843 11.4985 16.6713 11.2255C16.5582 10.9526 16.5 10.66 16.5 10.3645C16.5 9.76776 16.737 9.19547 17.159 8.77351C17.581 8.35156 18.1532 8.1145 18.75 8.1145C19.3467 8.1145 19.919 8.35156 20.341 8.77351C20.7629 9.19547 21 9.76776 21 10.3645ZM7.49999 10.3645C7.49999 10.66 7.44179 10.9526 7.32871 11.2255C7.21564 11.4985 7.04991 11.7466 6.84098 11.9555C6.63204 12.1644 6.38401 12.3302 6.11102 12.4432C5.83804 12.5563 5.54546 12.6145 5.24999 12.6145C4.95451 12.6145 4.66193 12.5563 4.38895 12.4432C4.11596 12.3302 3.86793 12.1644 3.65899 11.9555C3.45006 11.7466 3.28433 11.4985 3.17126 11.2255C3.05818 10.9526 2.99999 10.66 2.99999 10.3645C2.99999 9.76776 3.23704 9.19547 3.65899 8.77351C4.08095 8.35156 4.65325 8.1145 5.24999 8.1145C5.84672 8.1145 6.41902 8.35156 6.84098 8.77351C7.26293 9.19547 7.49999 9.76776 7.49999 10.3645Z" stroke="#F9FAFB" stroke-width="1.5" stroke-linecap="round" stroke-linejoin="round"/>
</svg>
