<svg width="24" height="25" viewBox="0 0 24 25" fill="none" xmlns="http://www.w3.org/2000/svg">
<path d="M17.982 18.8395C17.2833 17.9144 16.3793 17.1641 15.3412 16.6479C14.3031 16.1316 13.1594 15.8634 12 15.8645C10.8407 15.8634 9.6969 16.1316 8.65883 16.6479C7.62077 17.1641 6.71675 17.9144 6.01801 18.8395M17.982 18.8395C19.3455 17.6267 20.3071 16.028 20.7412 14.2556C21.1753 12.4831 21.0603 10.6206 20.4115 8.91498C19.7627 7.20937 18.6107 5.74127 17.1084 4.70539C15.6061 3.66951 13.8244 3.11479 11.9995 3.11479C10.1747 3.11479 8.39295 3.66951 6.89062 4.70539C5.38829 5.74127 4.23634 7.20937 3.58755 8.91498C2.93875 10.6206 2.82376 12.4831 3.25783 14.2556C3.6919 16.028 4.65451 17.6267 6.01801 18.8395M17.982 18.8395C16.336 20.3077 14.2056 21.1176 12 21.1145C9.79404 21.1179 7.66425 20.3079 6.01801 18.8395M15 9.8645C15 10.6601 14.6839 11.4232 14.1213 11.9858C13.5587 12.5484 12.7957 12.8645 12 12.8645C11.2044 12.8645 10.4413 12.5484 9.87869 11.9858C9.31608 11.4232 9.00001 10.6601 9.00001 9.8645C9.00001 9.06885 9.31608 8.30579 9.87869 7.74318C10.4413 7.18057 11.2044 6.8645 12 6.8645C12.7957 6.8645 13.5587 7.18057 14.1213 7.74318C14.6839 8.30579 15 9.06885 15 9.8645Z" stroke="#F9FAFB" stroke-width="1.5" stroke-linecap="round" stroke-linejoin="round"/>
</svg>
