<svg width="24" height="25" viewBox="0 0 24 25" fill="none" xmlns="http://www.w3.org/2000/svg">
<path d="M21.75 7.73632C21.7501 8.35967 21.6206 8.97623 21.3699 9.54692C21.1191 10.1176 20.7525 10.63 20.2934 11.0516C19.8342 11.4731 19.2924 11.7947 18.7024 11.9959C18.1125 12.1971 17.4871 12.2735 16.866 12.2203C15.79 12.1293 14.602 12.2913 13.916 13.1243L6.76402 21.8083C6.53841 22.0833 6.25772 22.308 5.94002 22.468C5.62231 22.628 5.27463 22.7197 4.91935 22.7372C4.56407 22.7546 4.20907 22.6976 3.87719 22.5696C3.54531 22.4415 3.24391 22.2455 2.99239 21.994C2.74086 21.7424 2.54479 21.441 2.41679 21.1091C2.28878 20.7773 2.23169 20.4223 2.24917 20.067C2.26666 19.7117 2.35834 19.364 2.51832 19.0463C2.67829 18.7286 2.90301 18.4479 3.17802 18.2223L11.862 11.0703C12.695 10.3843 12.857 9.19632 12.766 8.12032C12.6989 7.33849 12.8374 6.5527 13.1677 5.84091C13.4981 5.12913 14.0088 4.5161 14.6492 4.06267C15.2896 3.60923 16.0375 3.33114 16.8186 3.256C17.5997 3.18086 18.3869 3.31128 19.102 3.63432L15.826 6.91032C15.9528 7.45841 16.2309 7.95991 16.6286 8.35769C17.0264 8.75548 17.5279 9.03358 18.076 9.16032L21.352 5.88432C21.608 6.44932 21.75 7.07632 21.75 7.73632Z" stroke="#F9FAFB" stroke-width="1.5" stroke-linecap="round" stroke-linejoin="round"/>
<path d="M4.86719 20.1113H4.87519V20.1193H4.86719V20.1113Z" stroke="#F9FAFB" stroke-width="1.5" stroke-linecap="round" stroke-linejoin="round"/>
</svg>
